<svg viewBox="336 0 320 600" fill="none" preserveAspectRatio="xMidYMid meet" class="w-[46%] h-auto overflow-hidden"><path fill-rule="evenodd" clip-rule="evenodd" d="M67.8172 97.8535C71.3625 95.7866 93.2264 97.6705 95.8954 100.272C97.7948 102.126 104.999 133.13 105.014 139.508C105.035 149.299 98.8686 160.24 91.0536 164.281C87.1074 166.321 76.5014 167.973 72.2713 167.205C58.8565 164.771 52.0958 153.39 54.9286 138.012C55.9405 132.52 55.889 131.237 54.5702 129.225C53.7202 127.928 53.0253 126.113 53.0253 125.189C53.0253 122.688 65.8402 99.0055 67.8172 97.8535Z" fill="#d8ddda" stroke="transparent" stroke-width="0" class="transition-[opacity,fill] duration-300 ease-out cursor-pointer" data-muscle-id="1" style="opacity: 1; transform: scale(1); transform-origin: 50% 0%; transform-box: fill-box;"></path><path fill-rule="evenodd" clip-rule="evenodd" d="M131.198 97.7881C141.677 96.5981 149.524 96.6999 151.189 98.0459C152.039 98.734 155.768 105.091 159.474 112.173L166.214 125.05L164.512 128.824C163.023 132.126 162.959 133.479 164.001 139.654C165.007 145.615 164.947 147.551 163.621 152.115C160.416 163.137 149.778 169.003 136.867 166.867C121.829 164.379 113.529 154.321 113.702 138.796C113.805 129.614 120.191 103.29 123.017 100.401C124.238 99.1534 127.033 98.2601 131.198 97.7881Z" fill="#d8ddda" stroke="transparent" stroke-width="0" class="transition-[opacity,fill] duration-300 ease-out cursor-pointer" data-muscle-id="1" style="opacity: 1; transform: scale(1); transform-origin: 50% 0%; transform-box: fill-box;"></path><path fill-rule="evenodd" clip-rule="evenodd" d="M560.64 135.546C561.264 133.451 566.763 133.134 569.304 135.046C571.431 136.647 576.402 147.777 577.968 154.447C579.102 159.28 579.01 159.952 576.467 165.327C574.066 170.402 573.823 171.842 574.334 177.942C574.652 181.729 576.144 188.613 577.651 193.239C579.845 199.978 580.148 201.943 579.171 203.12C573.778 209.618 561.717 188.076 559.054 167.19C557.973 158.714 558.83 141.622 560.64 135.546Z" fill="#d8ddda" stroke="transparent" stroke-width="0" class="transition-[opacity,fill] duration-300 ease-out cursor-pointer" data-muscle-id="3" style="opacity: 1; transform: scale(1); transform-origin: 50% 0%; transform-box: fill-box;"></path><path fill-rule="evenodd" clip-rule="evenodd" d="M422.85 135.329C426.25 133.482 430.656 133.391 431.332 135.153C431.618 135.899 432.374 141.636 433.012 147.903C433.979 157.398 433.918 160.962 432.643 169.296C430.769 181.551 424.938 197.108 420.743 201.046C417.822 203.788 413.688 204.678 412.535 202.813C412.201 202.272 413.11 198.109 414.556 193.563C416.002 189.016 417.428 182.146 417.725 178.296C418.204 172.078 417.946 170.603 415.426 165.097L413.095 160.003L413.722 154.727L414.909 151.296C419.196 138.909 420.283 136.723 422.85 135.329Z" fill="#d8ddda" stroke="transparent" stroke-width="0" class="transition-[opacity,fill] duration-300 ease-out cursor-pointer" data-muscle-id="3" style="opacity: 1; transform: scale(1); transform-origin: 50% 0%; transform-box: fill-box;"></path><path fill-rule="evenodd" clip-rule="evenodd" d="M193.025 152.582C193.025 148.993 195.486 151.291 198.914 158.082C201.869 163.935 202.357 165.982 202.72 174.046C203.184 184.343 202.115 187.774 199.506 184.355C198.691 183.287 198.025 181.571 198.025 180.541C198.025 179.51 196.9 173.239 195.525 166.603C194.15 159.966 193.025 153.656 193.025 152.582Z" fill="#d8ddda" stroke="transparent" stroke-width="0" class="transition-[opacity,fill] duration-300 ease-out cursor-pointer" data-muscle-id="3" style="opacity: 1; transform: scale(1); transform-origin: 50% 0%; transform-box: fill-box;"></path><path fill-rule="evenodd" clip-rule="evenodd" d="M21.0126 154.046C25.5145 146.665 26.0469 151.85 22.578 169.296C19.783 183.35 19.0079 185.957 17.7489 185.537C13.3011 184.055 15.4696 163.134 21.0126 154.046Z" fill="#d8ddda" stroke="transparent" stroke-width="0" class="transition-[opacity,fill] duration-300 ease-out cursor-pointer" data-muscle-id="3" style="opacity: 1; transform: scale(1); transform-origin: 50% 0%; transform-box: fill-box;"></path><path fill-rule="evenodd" clip-rule="evenodd" d="M42.6503 93.2656C47.2561 91.6237 57.3632 91.3722 60.0907 92.831C61.1547 93.401 62.0253 94.7434 62.0253 95.8144C62.0248 96.8861 58.5636 104.12 54.3338 111.89C46.325 126.6 45.1111 127.959 30.3172 138.768C25.6882 142.149 24.0144 140.451 24.0604 132.424C24.1735 112.617 31.4683 97.2516 42.6503 93.2656Z" fill="#d8ddda" stroke="transparent" stroke-width="0" class="transition-[opacity,fill] duration-300 ease-out cursor-pointer" data-muscle-id="5" style="opacity: 1; transform: scale(1); transform-origin: 50% 0%; transform-box: fill-box;"></path><path fill-rule="evenodd" clip-rule="evenodd" d="M157.596 93.3672C159.458 91.5062 168.491 91.242 174.38 92.8769C179.067 94.1789 186.476 100.8 189.184 106.107C193.688 114.936 195.919 138.131 192.394 139.484C190.184 140.333 185.785 137.806 178.034 131.235C173.043 127.004 170.57 123.891 167.333 117.767C165.017 113.385 161.526 107.075 159.574 103.744C155.597 96.9594 155.342 95.6221 157.596 93.3672Z" fill="#d8ddda" stroke="transparent" stroke-width="0" class="transition-[opacity,fill] duration-300 ease-out cursor-pointer" data-muscle-id="5" style="opacity: 1; transform: scale(1); transform-origin: 50% 0%; transform-box: fill-box;"></path><path fill-rule="evenodd" clip-rule="evenodd" d="M428.707 93.2939C433.212 91.7459 435.882 92.4504 443.162 97.1074C449.349 101.065 450.598 103.5 448.228 106.981C439.123 120.352 415.169 138.821 411.203 135.529C408.918 133.632 410.073 115.687 412.888 109.352C416.926 100.264 421.273 95.8499 428.707 93.2939Z" fill="#d8ddda" stroke="transparent" stroke-width="0" class="transition-[opacity,fill] duration-300 ease-out cursor-pointer" data-muscle-id="5" style="opacity: 1; transform: scale(1); transform-origin: 50% 0%; transform-box: fill-box;"></path><path fill-rule="evenodd" clip-rule="evenodd" d="M551.95 95.5644C560.159 91.2554 561.941 91.2283 568.194 95.3184C572.679 98.2514 576.251 102.812 579.183 109.352C580.999 113.401 581.411 116.196 581.463 124.796C581.522 134.849 581.432 135.309 579.343 135.607C574.887 136.241 563.877 128.559 552.016 116.542C539.791 104.157 539.783 101.951 551.95 95.5644Z" fill="#d8ddda" stroke="transparent" stroke-width="0" class="transition-[opacity,fill] duration-300 ease-out cursor-pointer" data-muscle-id="5" style="opacity: 1; transform: scale(1); transform-origin: 50% 0%; transform-box: fill-box;"></path><path fill-rule="evenodd" clip-rule="evenodd" d="M39.16 137.813C47.11 132.055 49.9907 135.105 50.0028 149.296C50.0238 173.537 41.3792 197.922 30.6922 203.771C28.0652 205.209 27.7954 205.163 26.0194 203.003C24.9834 201.742 23.8251 198.643 23.4461 196.118C22.5882 190.397 25.3114 169.251 28.0184 160.617C29.1084 157.14 30.0093 153.621 30.0223 152.796C30.0806 148.973 35.0862 140.765 39.16 137.813Z" fill="#d8ddda" stroke="transparent" stroke-width="0" class="transition-[opacity,fill] duration-300 ease-out cursor-pointer" data-muscle-id="6" style="opacity: 1; transform: scale(1); transform-origin: 50% 0%; transform-box: fill-box;"></path><path fill-rule="evenodd" clip-rule="evenodd" d="M174.032 134.796C176.931 134.796 182.423 139.188 184.709 143.335C192.665 157.764 198.095 198.157 192.791 203.459C189.933 206.316 186.173 204.163 181.123 196.777C172.593 184.301 168.953 170.948 168.688 151.155C168.545 140.484 168.755 138.76 170.43 136.905C171.478 135.745 173.099 134.796 174.032 134.796Z" fill="#d8ddda" stroke="transparent" stroke-width="0" class="transition-[opacity,fill] duration-300 ease-out cursor-pointer" data-muscle-id="6" style="opacity: 1; transform: scale(1); transform-origin: 50% 0%; transform-box: fill-box;"></path><path fill-rule="evenodd" clip-rule="evenodd" d="M579.302 153.278C578.478 142.38 581.284 143.506 586.825 156.296C591.895 167.997 595.035 189.435 591.958 191.337C590.412 192.293 590.295 192.021 588.492 183.268C587.588 178.884 585.279 172.025 583.359 168.028C580.693 162.478 579.734 158.991 579.302 153.278Z" fill="#d8ddda" stroke="transparent" stroke-width="0" class="transition-[opacity,fill] duration-300 ease-out cursor-pointer" data-muscle-id="6" style="opacity: 1; transform: scale(1); transform-origin: 50% 0%; transform-box: fill-box;"></path><path fill-rule="evenodd" clip-rule="evenodd" d="M412.125 145.796C412.56 145.796 413.053 147.933 413.22 150.546L413.381 153.045L412.095 159.954L409.229 166.097C407.381 170.057 404.977 177.335 403.889 182.271C401.721 192.101 401.64 192.294 400.092 191.337C398.501 190.352 398.803 178.683 400.632 170.493C403.141 159.259 409.406 145.796 412.125 145.796Z" fill="#d8ddda" stroke="transparent" stroke-width="0" class="transition-[opacity,fill] duration-300 ease-out cursor-pointer" data-muscle-id="6" style="opacity: 1; transform: scale(1); transform-origin: 50% 0%; transform-box: fill-box;"></path><path fill-rule="evenodd" clip-rule="evenodd" d="M462.525 151.463C467.537 149.551 469.213 149.471 471.299 151.046C472.209 151.734 476.66 160.396 481.188 170.296C491.092 191.945 491.459 194.484 485.845 202.537C483.836 205.42 481.417 210.145 480.469 213.037C479.522 215.929 477.409 220.996 475.774 224.296C471.229 233.468 467.81 236.284 466.366 232.046C465.842 230.506 462.083 221.985 455.143 206.602C453.979 204.02 453.026 201.545 453.024 201.102C453.023 200.659 449.861 190.676 445.997 178.919C442.132 167.163 439.22 156.763 439.522 155.805C439.976 154.375 441.709 153.971 449.3 153.528C454.374 153.231 460.325 152.302 462.525 151.463Z" fill="#d8ddda" stroke="transparent" stroke-width="0" class="transition-[opacity,fill] duration-300 ease-out cursor-pointer" data-muscle-id="7" style="opacity: 1; transform: scale(1); transform-origin: 50% 0%; transform-box: fill-box;"></path><path fill-rule="evenodd" clip-rule="evenodd" d="M519.64 152.046C521.385 149.303 521.75 149.296 531.525 151.796C535.826 152.896 542.212 153.796 545.716 153.796C550.403 153.796 552.237 154.186 552.653 155.269C553.222 156.757 547.981 174.814 543.503 186.796C542.166 190.371 540.342 195.929 539.449 199.146C538.556 202.365 535.564 209.79 532.8 215.646C530.036 221.504 527.223 227.871 526.549 229.796C525.625 232.435 524.754 233.296 523.009 233.296C521.168 233.296 520.013 231.965 517.365 226.796C515.535 223.221 513.096 217.478 511.945 214.034C510.795 210.59 508.266 205.464 506.325 202.643C500.45 194.102 500.621 192.686 510.005 172.201C514.516 162.353 518.852 153.284 519.64 152.046Z" fill="#d8ddda" stroke="transparent" stroke-width="0" class="transition-[opacity,fill] duration-300 ease-out cursor-pointer" data-muscle-id="7" style="opacity: 1; transform: scale(1); transform-origin: 50% 0%; transform-box: fill-box;"></path><path fill-rule="evenodd" clip-rule="evenodd" d="M545.946 138.41C554.672 130.672 557.056 131.436 555.549 141.485C554.626 147.637 552.202 149.796 546.216 149.796C540.666 149.796 537.271 147.922 538.635 145.611C539.125 144.782 542.415 141.541 545.946 138.41Z" fill="#d8ddda" stroke="transparent" stroke-width="0" class="transition-[opacity,fill] duration-300 ease-out cursor-pointer" data-muscle-id="7" style="opacity: 1; transform: scale(1); transform-origin: 50% 0%; transform-box: fill-box;"></path><path fill-rule="evenodd" clip-rule="evenodd" d="M437.644 132.796C440.252 132.797 453.025 144.474 453.025 146.857C453.025 149.212 449.421 150.247 443.827 149.496C438.216 148.744 437.083 147.226 436.361 139.491C435.788 133.351 435.894 132.796 437.644 132.796Z" fill="#d8ddda" stroke="transparent" stroke-width="0" class="transition-[opacity,fill] duration-300 ease-out cursor-pointer" data-muscle-id="7" style="opacity: 1; transform: scale(1); transform-origin: 50% 0%; transform-box: fill-box;"></path><path fill-rule="evenodd" clip-rule="evenodd" d="M445.775 115.54C452.332 108.91 454.312 108.595 457.704 113.64C462.364 120.572 466.951 136.97 465.665 142.097C464.316 147.467 457.646 145.218 449.437 136.623C442.482 129.34 440.025 125.9 440.025 123.44C440.025 122.241 442.471 118.881 445.775 115.54Z" fill="#d8ddda" stroke="transparent" stroke-width="0" class="transition-[opacity,fill] duration-300 ease-out cursor-pointer" data-muscle-id="8" style="opacity: 1; transform: scale(1); transform-origin: 50% 0%; transform-box: fill-box;"></path><path fill-rule="evenodd" clip-rule="evenodd" d="M538.901 109.796C540.813 109.797 552.025 120.707 552.025 122.564C552.025 126.598 540.634 140.394 534.825 143.399C531.233 145.257 527.383 145.17 526.632 143.214C524.525 137.723 530.287 117.813 535.796 111.546C536.643 110.583 538.04 109.796 538.901 109.796Z" fill="#d8ddda" stroke="transparent" stroke-width="0" class="transition-[opacity,fill] duration-300 ease-out cursor-pointer" data-muscle-id="8" style="opacity: 1; transform: scale(1); transform-origin: 50% 0%; transform-box: fill-box;"></path><path fill-rule="evenodd" clip-rule="evenodd" d="M3.52525 296.991C6.97926 295.032 15.4173 295.53 18.3895 297.869C21.7545 300.515 21.9536 305.032 18.8016 307.239C15.4055 309.618 5.95612 309.316 2.66002 306.724C-1.19598 303.692 -0.818748 299.454 3.52525 296.991Z" fill="#d8ddda" stroke="transparent" stroke-width="0" class="transition-[opacity,fill] duration-300 ease-out cursor-pointer" data-muscle-id="9" style="opacity: 1; transform: scale(1); transform-origin: 50% 0%; transform-box: fill-box;"></path><path fill-rule="evenodd" clip-rule="evenodd" d="M207.545 295.796C214.426 295.796 217.979 298.064 218.01 302.474C218.049 308.197 206.218 311.095 200.66 306.724C197.369 304.136 197.311 301.419 200.48 298.251C202.376 296.354 203.983 295.796 207.545 295.796Z" fill="#d8ddda" stroke="transparent" stroke-width="0" class="transition-[opacity,fill] duration-300 ease-out cursor-pointer" data-muscle-id="9" style="opacity: 1; transform: scale(1); transform-origin: 50% 0%; transform-box: fill-box;"></path><path fill-rule="evenodd" clip-rule="evenodd" d="M389.66 297.869C393.574 294.79 401.308 294.988 404.57 298.251C409.847 303.527 406.303 308.796 397.48 308.796C392.925 308.796 391.495 308.357 389.48 306.341C386.311 303.173 386.369 300.457 389.66 297.869Z" fill="#d8ddda" stroke="transparent" stroke-width="0" class="transition-[opacity,fill] duration-300 ease-out cursor-pointer" data-muscle-id="9" style="opacity: 1; transform: scale(1); transform-origin: 50% 0%; transform-box: fill-box;"></path><path fill-rule="evenodd" clip-rule="evenodd" d="M593.932 295.796C602.564 295.796 606.853 299.513 604.118 304.623C601.632 309.268 589.251 310.028 585.785 305.748C583.414 302.82 583.567 301.163 586.48 298.251C588.431 296.299 589.96 295.796 593.932 295.796Z" fill="#d8ddda" stroke="transparent" stroke-width="0" class="transition-[opacity,fill] duration-300 ease-out cursor-pointer" data-muscle-id="9" style="opacity: 1; transform: scale(1); transform-origin: 50% 0%; transform-box: fill-box;"></path><path fill-rule="evenodd" clip-rule="evenodd" d="M417.5 211.006C419.322 211.267 419.557 212.149 419.845 219.796C420.308 232.083 418.619 240.682 412.342 257.977C409.284 266.402 405.938 276.208 404.906 279.767C402.83 286.925 400.317 290.23 397.708 289.229C395.461 288.366 395.532 284.032 398.022 270.296C399.118 264.246 400.71 255.246 401.558 250.296C404.009 236.005 407.133 222.551 408.757 219.296C409.58 217.646 411.428 215.04 412.865 213.506C414.407 211.858 416.305 210.835 417.5 211.006Z" fill="#d8ddda" stroke="transparent" stroke-width="0" class="transition-[opacity,fill] duration-300 ease-out cursor-pointer" data-muscle-id="9" style="opacity: 1; transform: scale(1); transform-origin: 50% 0%; transform-box: fill-box;"></path><path fill-rule="evenodd" clip-rule="evenodd" d="M572.352 212.387C573.813 208.579 579.833 212.377 583.3 219.296C585.28 223.248 589.251 241.871 593 264.782C596.752 287.707 596.781 288.796 593.647 288.796C590.56 288.796 589.727 287.625 587.25 279.796C586.119 276.221 583.085 267.446 580.507 260.296C577.929 253.146 575.158 245.271 574.349 242.796C572.808 238.079 571.301 215.13 572.352 212.387Z" fill="#d8ddda" stroke="transparent" stroke-width="0" class="transition-[opacity,fill] duration-300 ease-out cursor-pointer" data-muscle-id="9" style="opacity: 1; transform: scale(1); transform-origin: 50% 0%; transform-box: fill-box;"></path><path fill-rule="evenodd" clip-rule="evenodd" d="M11.9823 200.067C14.6253 195.774 16.4513 196.646 18.9833 203.414C21.7562 210.826 22.4994 220.613 21.1014 231.326C19.8445 240.953 11.3115 283.836 10.4872 284.667C8.84617 286.308 8.52277 281.553 9.37877 268.376C10.0958 257.346 10.0399 252.303 9.1649 249.031C8.5099 246.581 8.25745 242.525 8.60045 239.945C8.94045 237.383 8.72112 230.318 8.11412 224.247C6.91714 212.274 7.7783 206.894 11.9823 200.067Z" fill="#d8ddda" stroke="transparent" stroke-width="0" class="transition-[opacity,fill] duration-300 ease-out cursor-pointer" data-muscle-id="9" style="opacity: 1; transform: scale(1); transform-origin: 50% 0%; transform-box: fill-box;"></path><path fill-rule="evenodd" clip-rule="evenodd" d="M213.689 232.796C214.091 231.75 214.709 232.341 215.731 234.749C217.331 238.519 218.9 277.173 217.655 282.136C216.888 285.192 215.545 285.587 214.561 283.046C213.513 280.34 211.759 266.762 211.88 262.296C212.214 250.013 213.19 234.097 213.689 232.796Z" fill="#d8ddda" stroke="transparent" stroke-width="0" class="transition-[opacity,fill] duration-300 ease-out cursor-pointer" data-muscle-id="9" style="opacity: 1; transform: scale(1); transform-origin: 50% 0%; transform-box: fill-box;"></path><path fill-rule="evenodd" clip-rule="evenodd" d="M204.025 196.796C205.329 196.796 206.689 199.107 208.873 205.032C210.768 210.174 210.922 212.088 210.369 223.532C210.03 230.552 209.636 246.421 209.495 258.796C209.48 260.141 209.466 261.417 209.452 262.625C209.252 280.346 209.214 283.676 208.696 283.754C208.576 283.772 208.431 283.615 208.252 283.423C208.199 283.366 208.142 283.306 208.083 283.246C207.564 282.722 205.014 272.395 202.416 260.296C198.025 239.847 197.686 237.238 197.609 223.296C197.54 210.897 197.844 207.516 199.364 203.796C200.376 201.321 201.668 198.734 202.237 198.046C202.805 197.359 203.61 196.796 204.025 196.796Z" fill="#d8ddda" stroke="transparent" stroke-width="0" class="transition-[opacity,fill] duration-300 ease-out cursor-pointer" data-muscle-id="9" style="opacity: 1; transform: scale(1); transform-origin: 50% 0%; transform-box: fill-box;"></path><path fill-rule="evenodd" clip-rule="evenodd" d="M5.01842 238.02C6.56627 242.095 6.67511 244.749 5.98814 261.456C5.19915 280.613 4.66114 284.174 2.65221 283.506C1.01021 282.96 0.561968 249.184 2.07994 240.359L3.2733 233.422L5.01842 238.02Z" fill="#d8ddda" stroke="transparent" stroke-width="0" class="transition-[opacity,fill] duration-300 ease-out cursor-pointer" data-muscle-id="9" style="opacity: 1; transform: scale(1); transform-origin: 50% 0%; transform-box: fill-box;"></path><path fill-rule="evenodd" clip-rule="evenodd" d="M592.038 210.546C593.134 206.743 594.969 205.774 596.772 208.046C597.853 209.409 599.49 215.91 601.115 225.296C602.661 234.224 603.991 278.882 602.78 281.206C601.873 282.945 601.7 282.967 600.854 281.455C599.785 279.544 597.832 270.251 595.042 253.796C593.97 247.471 592.346 238.085 591.432 232.938C589.774 223.587 589.928 217.866 592.038 210.546Z" fill="#d8ddda" stroke="transparent" stroke-width="0" class="transition-[opacity,fill] duration-300 ease-out cursor-pointer" data-muscle-id="9" style="opacity: 1; transform: scale(1); transform-origin: 50% 0%; transform-box: fill-box;"></path><path fill-rule="evenodd" clip-rule="evenodd" d="M395.217 208.485C396.683 205.671 398.372 206.988 400.195 212.368C402.295 218.567 402.368 225.099 400.451 235.296C399.624 239.696 398.335 246.896 397.587 251.296C394.868 267.283 392.024 280.198 390.995 281.227C388.648 283.573 388.106 278.795 388.621 260.296C389.368 233.439 391.681 215.276 395.217 208.485Z" fill="#d8ddda" stroke="transparent" stroke-width="0" class="transition-[opacity,fill] duration-300 ease-out cursor-pointer" data-muscle-id="9" style="opacity: 1; transform: scale(1); transform-origin: 50% 0%; transform-box: fill-box;"></path><path fill-rule="evenodd" clip-rule="evenodd" d="M32.0731 212.796C37.463 212.796 36.9161 227.604 30.8221 246.682C26.2792 260.9 19.4709 278.749 18.0467 280.174C16.6857 281.535 17.7496 272.664 20.5516 259.296C22.6106 249.47 25.0051 234.113 26.3641 222.008C26.6282 219.649 27.5709 216.612 28.4579 215.258C29.3449 213.904 30.9722 212.796 32.0731 212.796Z" fill="#d8ddda" stroke="transparent" stroke-width="0" class="transition-[opacity,fill] duration-300 ease-out cursor-pointer" data-muscle-id="9" style="opacity: 1; transform: scale(1); transform-origin: 50% 0%; transform-box: fill-box;"></path><path fill-rule="evenodd" clip-rule="evenodd" d="M183.632 214.378C184.54 212.011 187.623 212.47 189.852 215.304C191.183 216.996 192.045 220.162 192.507 225.054C193.249 232.91 194.513 240.771 198.466 262.113C201.387 277.883 201.622 280.793 199.832 279.003C197.89 277.06 188.12 250.061 184.953 237.887C183.101 230.769 182.366 217.678 183.632 214.378Z" fill="#d8ddda" stroke="transparent" stroke-width="0" class="transition-[opacity,fill] duration-300 ease-out cursor-pointer" data-muscle-id="9" style="opacity: 1; transform: scale(1); transform-origin: 50% 0%; transform-box: fill-box;"></path><path fill-rule="evenodd" clip-rule="evenodd" d="M128.841 236.918C129.014 236.851 130.027 237.262 131.091 237.831C132.31 238.484 133.025 239.923 133.025 241.723C133.025 248.109 121.152 287.769 118.26 291.046C116.262 293.309 113.356 293.283 112.13 290.992C111.539 289.887 111.393 280.324 111.752 266.364C112.449 239.349 112.454 239.334 122.525 237.897C125.824 237.426 128.665 236.985 128.841 236.918Z" fill="#d8ddda" stroke="transparent" stroke-width="0" class="transition-[opacity,fill] duration-300 ease-out cursor-pointer" data-muscle-id="10" style="opacity: 1; transform: scale(1); transform-origin: 50% 0%; transform-box: fill-box;"></path><path fill-rule="evenodd" clip-rule="evenodd" d="M87.2518 237.97C88.5408 236.681 94.764 237.115 100.62 238.903C106.105 240.579 106.525 242.654 106.525 268.081C106.525 288.584 106.342 291.188 104.834 292.142C101.923 293.983 99.4869 290.419 95.1581 277.982C86.6714 253.606 84.1883 241.034 87.2518 237.97Z" fill="#d8ddda" stroke="transparent" stroke-width="0" class="transition-[opacity,fill] duration-300 ease-out cursor-pointer" data-muscle-id="10" style="opacity: 1; transform: scale(1); transform-origin: 50% 0%; transform-box: fill-box;"></path><path fill-rule="evenodd" clip-rule="evenodd" d="M91.5868 214.784C97.5146 213.643 99.9348 213.679 102.341 214.946C105.524 216.621 105.993 217.719 106.01 223.546C106.035 232.071 102.159 234.285 91.5253 231.821C86.6733 230.697 84.0253 227.688 84.0253 223.296C84.0254 218.864 86.837 215.699 91.5868 214.784Z" fill="#d8ddda" stroke="transparent" stroke-width="0" class="transition-[opacity,fill] duration-300 ease-out cursor-pointer" data-muscle-id="10" style="opacity: 1; transform: scale(1); transform-origin: 50% 0%; transform-box: fill-box;"></path><path fill-rule="evenodd" clip-rule="evenodd" d="M114.608 216.123C116.952 213.778 117.687 213.598 122.57 214.172C132.355 215.322 134.576 217.418 133.849 224.81C133.642 226.907 132.62 228.766 131.025 229.941C128.233 232 120.443 233.368 116.767 232.446C111.595 231.148 110.192 220.538 114.608 216.123Z" fill="#d8ddda" stroke="transparent" stroke-width="0" class="transition-[opacity,fill] duration-300 ease-out cursor-pointer" data-muscle-id="10" style="opacity: 1; transform: scale(1); transform-origin: 50% 0%; transform-box: fill-box;"></path><path fill-rule="evenodd" clip-rule="evenodd" d="M96.0253 190.448C104.091 185.728 106.025 187.326 106.025 198.707C106.025 205.139 105.806 205.894 103.493 207.409C102.039 208.362 98.0413 209.278 94.0995 209.56C87.5715 210.027 87.1549 209.924 85.5409 207.461C82.3072 202.525 86.2124 196.189 96.0253 190.448Z" fill="#d8ddda" stroke="transparent" stroke-width="0" class="transition-[opacity,fill] duration-300 ease-out cursor-pointer" data-muscle-id="10" style="opacity: 1; transform: scale(1); transform-origin: 50% 0%; transform-box: fill-box;"></path><path fill-rule="evenodd" clip-rule="evenodd" d="M116.108 187.796C118.498 187.796 127.57 193.485 130.815 197.018C133.598 200.048 134.8 206.157 133.032 208.288C130.724 211.069 115.732 209.483 113.334 206.204C111.766 204.06 111.574 192.507 113.06 189.73C113.63 188.666 115.001 187.796 116.108 187.796Z" fill="#d8ddda" stroke="transparent" stroke-width="0" class="transition-[opacity,fill] duration-300 ease-out cursor-pointer" data-muscle-id="10" style="opacity: 1; transform: scale(1); transform-origin: 50% 0%; transform-box: fill-box;"></path><path fill-rule="evenodd" clip-rule="evenodd" d="M100.876 166.796C103.723 166.796 106.025 169.972 106.025 173.9C106.025 178.12 104.83 179.281 93.2889 186.281C85.888 190.77 84.0253 190.174 84.0253 183.321C84.0253 177.454 87.2919 172.922 93.9549 169.546C96.9407 168.034 100.055 166.796 100.876 166.796Z" fill="#d8ddda" stroke="transparent" stroke-width="0" class="transition-[opacity,fill] duration-300 ease-out cursor-pointer" data-muscle-id="10" style="opacity: 1; transform: scale(1); transform-origin: 50% 0%; transform-box: fill-box;"></path><path fill-rule="evenodd" clip-rule="evenodd" d="M113.545 168.773C115.864 166.212 117.814 166.281 124.246 169.152C131.571 172.42 133.318 174.696 133.819 181.624C134.462 190.519 133.044 191.014 123.188 185.33C113.904 179.975 113.125 179.186 112.342 174.363C111.909 171.693 112.223 170.235 113.545 168.773Z" fill="#d8ddda" stroke="transparent" stroke-width="0" class="transition-[opacity,fill] duration-300 ease-out cursor-pointer" data-muscle-id="10" style="opacity: 1; transform: scale(1); transform-origin: 50% 0%; transform-box: fill-box;"></path><path fill-rule="evenodd" clip-rule="evenodd" d="M60.0633 168.796C62.2016 168.796 76.6433 174.075 77.9422 175.332C79.6292 176.963 79.7083 180.656 78.6053 206.296C77.9513 221.487 78.1104 228.027 79.3973 238.922C81.1432 253.694 80.595 258.163 76.8924 259.338C74.4944 260.099 72.2086 258.618 64.8446 251.528C56.9168 243.896 56.6603 241.779 62.1971 229.722C66.4871 220.38 66.5246 220.2 66.4696 209.296C66.4196 199.435 65.9886 196.848 62.3016 184.318C60.0388 176.631 58.4033 169.995 58.6659 169.568C58.9279 169.143 59.5573 168.796 60.0633 168.796Z" fill="#d8ddda" stroke="transparent" stroke-width="0" class="transition-[opacity,fill] duration-300 ease-out cursor-pointer" data-muscle-id="11" style="opacity: 1; transform: scale(1); transform-origin: 50% 0%; transform-box: fill-box;"></path><path fill-rule="evenodd" clip-rule="evenodd" d="M152.525 170.367C155.275 169.045 157.975 168.082 158.525 168.226C160.278 168.684 159.435 173.901 155.049 189.762C149.333 210.424 149.758 215.411 158.976 236.007C160.891 240.286 160.954 241.021 159.665 244.007C157.997 247.871 147.501 258.296 144.326 259.243C142.784 259.702 141.475 259.246 139.943 257.714C137.892 255.663 137.813 255.038 138.637 247.413C139.119 242.949 139.516 224.973 139.519 207.466C139.525 177.117 139.615 175.571 141.466 174.216C142.534 173.435 144.334 172.79 145.466 172.783C146.599 172.776 149.775 171.689 152.525 170.367Z" fill="#d8ddda" stroke="transparent" stroke-width="0" class="transition-[opacity,fill] duration-300 ease-out cursor-pointer" data-muscle-id="11" style="opacity: 1; transform: scale(1); transform-origin: 50% 0%; transform-box: fill-box;"></path><path fill-rule="evenodd" clip-rule="evenodd" d="M530.275 329.919C532.955 327.183 541.386 330.366 544.648 335.345C547.551 339.776 550.23 351.618 549.132 355.167C548.599 356.888 547.868 361.221 547.507 364.796C547.146 368.371 545.765 379.323 544.438 389.133C543.111 398.942 542.025 409.855 542.025 413.383C542.025 416.909 541.645 419.794 541.181 419.796C538.243 419.796 532.312 407.802 530.458 398.109C528.531 388.038 528.38 331.854 530.275 329.919Z" fill="#d8ddda" stroke="transparent" stroke-width="0" class="transition-[opacity,fill] duration-300 ease-out cursor-pointer" data-muscle-id="12" style="opacity: 1; transform: scale(1); transform-origin: 50% 0%; transform-box: fill-box;"></path><path fill-rule="evenodd" clip-rule="evenodd" d="M453.296 330.761C458.235 328.519 460.173 328.344 461.825 329.996C463.689 331.86 463.478 388.254 461.569 398.229C459.943 406.73 454.475 418.11 451.775 418.616C450.25 418.901 450.021 418.066 449.993 412.119C449.976 408.366 449.296 400.571 448.482 394.796C444.138 363.955 442.971 350.558 444.122 344.71C445.644 336.97 448.21 333.069 453.296 330.761Z" fill="#d8ddda" stroke="transparent" stroke-width="0" class="transition-[opacity,fill] duration-300 ease-out cursor-pointer" data-muscle-id="12" style="opacity: 1; transform: scale(1); transform-origin: 50% 0%; transform-box: fill-box;"></path><path fill-rule="evenodd" clip-rule="evenodd" d="M562.243 310.058C564.26 307.581 565.025 310.101 565.025 319.23C565.025 333.92 559.796 360.836 554.462 373.601C552.054 379.365 551.26 376.068 551.662 361.961C552.188 343.464 553.585 331.034 555.841 324.796C558.604 317.154 561.051 311.522 562.243 310.058Z" fill="#d8ddda" stroke="transparent" stroke-width="0" class="transition-[opacity,fill] duration-300 ease-out cursor-pointer" data-muscle-id="12" style="opacity: 1; transform: scale(1); transform-origin: 50% 0%; transform-box: fill-box;"></path><path fill-rule="evenodd" clip-rule="evenodd" d="M427.664 309.49C428.804 308.35 430.086 309.878 432.421 315.158C438.011 327.796 439.399 336.036 440.38 362.396C441.039 380.1 439.641 380.552 434.501 364.296C430.8 352.592 427.025 329.841 427.025 319.238C427.025 314.228 427.313 309.842 427.664 309.49Z" fill="#d8ddda" stroke="transparent" stroke-width="0" class="transition-[opacity,fill] duration-300 ease-out cursor-pointer" data-muscle-id="12" style="opacity: 1; transform: scale(1); transform-origin: 50% 0%; transform-box: fill-box;"></path><path fill-rule="evenodd" clip-rule="evenodd" d="M523.426 341.097C524.182 341.349 524.618 350.641 524.824 370.879L525.123 400.296L519.4 411.498C508.528 432.778 506.525 432.933 506.525 412.498C506.525 404.676 507.256 394.689 508.318 387.99C510.332 375.288 515.858 355.236 519.748 346.514C521.167 343.334 522.821 340.896 523.426 341.097Z" fill="#d8ddda" stroke="transparent" stroke-width="0" class="transition-[opacity,fill] duration-300 ease-out cursor-pointer" data-muscle-id="13" style="opacity: 1; transform: scale(1); transform-origin: 50% 0%; transform-box: fill-box;"></path><path fill-rule="evenodd" clip-rule="evenodd" d="M467.715 340.439C469.063 339.092 470.913 342.423 474.369 352.418C482.266 375.259 486.468 398.402 485.868 415.755C485.291 432.475 483.273 431.822 472.799 411.525L467.025 400.338V370.734C467.025 354.455 467.336 340.825 467.715 340.439Z" fill="#d8ddda" stroke="transparent" stroke-width="0" class="transition-[opacity,fill] duration-300 ease-out cursor-pointer" data-muscle-id="13" style="opacity: 1; transform: scale(1); transform-origin: 50% 0%; transform-box: fill-box;"></path><path fill-rule="evenodd" clip-rule="evenodd" d="M90.6522 358.546C91.3532 356.129 92.8814 356.356 94.0233 359.046C99.5823 372.141 103.066 406.948 99.5067 413.831C96.7277 419.205 89.2687 419.036 86.3397 413.532C84.0288 409.19 84.2068 398.578 86.8368 383.796C87.9618 377.471 89.1666 369.596 89.5126 366.296C89.8596 362.996 90.3722 359.508 90.6522 358.546Z" fill="#d8ddda" stroke="transparent" stroke-width="0" class="transition-[opacity,fill] duration-300 ease-out cursor-pointer" data-muscle-id="13" style="opacity: 1; transform: scale(1); transform-origin: 50% 0%; transform-box: fill-box;"></path><path fill-rule="evenodd" clip-rule="evenodd" d="M125.067 357.895C126.785 353.979 128.004 356.683 129.116 366.878C129.682 372.058 131.017 380.53 132.085 385.705C135.714 403.306 134.126 415.026 127.815 417.214C124.21 418.464 120.304 416.641 118.911 413.059C118.232 411.314 118.014 404.773 118.319 395.296C118.784 380.829 121.422 366.208 125.067 357.895Z" fill="#d8ddda" stroke="transparent" stroke-width="0" class="transition-[opacity,fill] duration-300 ease-out cursor-pointer" data-muscle-id="13" style="opacity: 1; transform: scale(1); transform-origin: 50% 0%; transform-box: fill-box;"></path><path fill-rule="evenodd" clip-rule="evenodd" d="M49.1463 328.986C50.3163 325.898 51.805 327.024 52.577 331.581C55.389 348.165 59.0947 362.595 65.0516 380.165C72.4026 401.843 73.4776 408.276 70.4676 412.573C67.0587 417.441 64.5307 414.801 59.6708 401.296C55.6838 390.219 49.6502 366.154 47.9862 354.7C46.8972 347.199 47.5254 333.266 49.1463 328.986Z" fill="#d8ddda" stroke="transparent" stroke-width="0" class="transition-[opacity,fill] duration-300 ease-out cursor-pointer" data-muscle-id="13" style="opacity: 1; transform: scale(1); transform-origin: 50% 0%; transform-box: fill-box;"></path><path fill-rule="evenodd" clip-rule="evenodd" d="M166.657 329.491C166.953 328.498 167.706 327.856 168.33 328.064C170.368 328.744 171.196 336.058 170.68 348.796C170.241 359.611 169.501 363.857 165.187 380.296C159.822 400.744 155.487 412.491 152.669 414.216C150.085 415.797 146.025 410.875 146.025 406.162C146.025 404.224 149.196 393.335 153.072 381.967C157.553 368.824 161.212 355.834 163.119 346.296C164.769 338.046 166.361 330.484 166.657 329.491Z" fill="#d8ddda" stroke="transparent" stroke-width="0" class="transition-[opacity,fill] duration-300 ease-out cursor-pointer" data-muscle-id="13" style="opacity: 1; transform: scale(1); transform-origin: 50% 0%; transform-box: fill-box;"></path><path fill-rule="evenodd" clip-rule="evenodd" d="M62.6014 280.672C64.3623 277.825 66.459 280.902 69.5028 290.796C71.2788 296.571 75.2557 307.831 78.3407 315.818C81.4246 323.805 84.4711 332.777 85.1102 335.755C87.6582 347.636 84.3531 390.285 80.4003 396.546C76.7233 402.368 74.3675 398.28 66.7215 372.796C58.7996 346.394 55.6511 329.257 55.6981 312.796C55.7271 302.724 56.1193 300.077 58.8612 291.479C60.5832 286.079 62.2664 281.215 62.6014 280.672Z" fill="#d8ddda" stroke="transparent" stroke-width="0" class="transition-[opacity,fill] duration-300 ease-out cursor-pointer" data-muscle-id="13" style="opacity: 1; transform: scale(1); transform-origin: 50% 0%; transform-box: fill-box;"></path><path fill-rule="evenodd" clip-rule="evenodd" d="M152.719 280.546C153.143 279.796 156.025 279.466 156.025 280.167C156.025 280.371 157.599 285.659 159.522 291.917C163.585 305.139 164.08 315.209 161.507 332.296C157.845 356.611 144.907 398.794 141.111 398.796C137.633 398.796 133.753 380.964 132.624 359.796C131.677 342.042 132.871 334.56 139.249 318.296C142.269 310.596 146.439 299.121 148.517 292.796C150.594 286.471 152.485 280.959 152.719 280.546Z" fill="#d8ddda" stroke="transparent" stroke-width="0" class="transition-[opacity,fill] duration-300 ease-out cursor-pointer" data-muscle-id="13" style="opacity: 1; transform: scale(1); transform-origin: 50% 0%; transform-box: fill-box;"></path><path fill-rule="evenodd" clip-rule="evenodd" d="M501.632 324.378C502.436 322.283 505.272 322.379 509.815 324.654C511.855 325.676 514.733 326.802 516.208 327.156C520.415 328.166 520.494 330.871 516.655 342.57C514.719 348.469 511.94 357.346 510.479 362.296C507.757 371.518 505.518 375.536 504.666 372.725C504.429 371.939 503.506 364.096 502.615 355.296C500.944 338.782 500.574 327.136 501.632 324.378Z" fill="#d8ddda" stroke="transparent" stroke-width="0" class="transition-[opacity,fill] duration-300 ease-out cursor-pointer" data-muscle-id="13" style="opacity: 1; transform: scale(1); transform-origin: 50% 0%; transform-box: fill-box;"></path><path fill-rule="evenodd" clip-rule="evenodd" d="M487.74 322.896C491.439 322.593 491.898 333.438 489.187 357.072C487.553 371.313 486.711 374.006 484.894 370.796C483.349 368.066 472.025 332.859 472.025 330.786C472.025 329.598 472.96 328.398 474.275 327.898C475.512 327.428 478.775 326.132 481.525 325.02C484.275 323.907 487.072 322.951 487.74 322.896Z" fill="#d8ddda" stroke="transparent" stroke-width="0" class="transition-[opacity,fill] duration-300 ease-out cursor-pointer" data-muscle-id="13" style="opacity: 1; transform: scale(1); transform-origin: 50% 0%; transform-box: fill-box;"></path><path fill-rule="evenodd" clip-rule="evenodd" d="M67.7889 263.796C68.9299 263.796 77.6283 273.035 81.8163 278.697C83.2803 280.676 86.3373 284.546 88.6083 287.296C90.8792 290.046 95.0878 295.741 97.9618 299.951C105.076 310.375 105.949 316.51 103.546 339.182C102.606 348.04 101.629 355.627 101.372 356.043C100.349 357.698 99.1212 356.611 97.9872 353.046C96.5401 348.496 91.975 336.395 80.6883 307.191C70.3343 280.403 68.1581 274.043 67.3641 268.253C66.9802 265.453 67.138 263.796 67.7889 263.796Z" fill="#d8ddda" stroke="transparent" stroke-width="0" class="transition-[opacity,fill] duration-300 ease-out cursor-pointer" data-muscle-id="13" style="opacity: 1; transform: scale(1); transform-origin: 50% 0%; transform-box: fill-box;"></path><path fill-rule="evenodd" clip-rule="evenodd" d="M151.018 262.796C154.111 262.797 149.614 277.218 134.494 315.796C131.368 323.771 126.782 336.258 124.304 343.546C121.825 350.834 119.388 356.796 118.887 356.796C117.248 356.795 116.284 352.496 115.006 339.503C113.302 322.176 114.024 311.667 117.357 305.257C119.957 300.257 130.978 285.455 140.877 273.669C143.821 270.164 147.08 266.284 148.121 265.046C149.161 263.808 150.465 262.796 151.018 262.796Z" fill="#d8ddda" stroke="transparent" stroke-width="0" class="transition-[opacity,fill] duration-300 ease-out cursor-pointer" data-muscle-id="13" style="opacity: 1; transform: scale(1); transform-origin: 50% 0%; transform-box: fill-box;"></path><path fill-rule="evenodd" clip-rule="evenodd" d="M53.8739 252.09C55.2627 250.701 55.6391 250.809 57.6737 253.174C60.1616 256.066 62.0123 261.657 62.0174 266.296C62.0204 269.813 58.2196 284.523 54.0077 297.296C52.3747 302.246 49.9434 310.518 48.6024 315.677C44.8565 330.095 42.7278 330.473 41.4598 316.944C40.5218 306.94 41.3805 295.478 44.0165 282.796C46.6535 270.106 51.7569 254.207 53.8739 252.09Z" fill="#d8ddda" stroke="transparent" stroke-width="0" class="transition-[opacity,fill] duration-300 ease-out cursor-pointer" data-muscle-id="13" style="opacity: 1; transform: scale(1); transform-origin: 50% 0%; transform-box: fill-box;"></path><path fill-rule="evenodd" clip-rule="evenodd" d="M163.025 251.796C165.887 251.796 168.323 257.535 172.738 274.668C175.927 287.045 176.292 289.903 176.718 305.796C177.116 320.633 176.95 323.6 175.625 325.296C173.566 327.933 172.739 326.653 170.523 317.397C169.588 313.492 166.348 302.646 163.323 293.296C156.649 272.661 155.576 263.859 158.839 256.484C160.365 253.034 161.47 251.796 163.025 251.796Z" fill="#d8ddda" stroke="transparent" stroke-width="0" class="transition-[opacity,fill] duration-300 ease-out cursor-pointer" data-muscle-id="13" style="opacity: 1; transform: scale(1); transform-origin: 50% 0%; transform-box: fill-box;"></path><path fill-rule="evenodd" clip-rule="evenodd" d="M508.184 259.405C513.625 253.796 514.08 253.542 517.711 254.117C523.59 255.047 537.684 262.632 543.629 268.065C551.511 275.269 555.301 283.547 555.836 294.722C556.188 302.091 555.912 304.188 554.005 308.621C551.412 314.648 548.363 317.506 540.33 321.436C535.625 323.737 533.311 324.236 527.556 324.186C514.375 324.07 502.785 317.972 499.527 309.441C498.143 305.816 497.906 302.226 498.192 289.166C498.599 270.564 499.255 268.612 508.184 259.405Z" fill="#d8ddda" stroke="transparent" stroke-width="0" class="transition-[opacity,fill] duration-300 ease-out cursor-pointer" data-muscle-id="14" style="opacity: 1; transform: scale(1); transform-origin: 50% 0%; transform-box: fill-box;"></path><path fill-rule="evenodd" clip-rule="evenodd" d="M470.063 254.906C476.917 252.17 483.19 256.089 489.984 267.35L493.443 273.083L493.845 288.189C494.336 306.668 493.434 310.8 487.771 316.03C481.974 321.383 474.245 324.127 465.025 324.105C456.395 324.085 450.66 322.259 444.897 317.694C432.033 307.506 432.662 284.909 446.219 270.201C449.828 266.287 463.46 257.542 470.063 254.906Z" fill="#d8ddda" stroke="transparent" stroke-width="0" class="transition-[opacity,fill] duration-300 ease-out cursor-pointer" data-muscle-id="14" style="opacity: 1; transform: scale(1); transform-origin: 50% 0%; transform-box: fill-box;"></path><path fill-rule="evenodd" clip-rule="evenodd" d="M503.941 53.7959C505.361 53.7963 507.703 57.2464 509.624 62.167C513.569 72.274 518.6 76.1796 539.275 85.1826C547.043 88.5645 547.044 90.7254 539.278 94.2803C528.821 99.0683 526.576 102.451 524.458 116.611C522.498 129.718 520.965 134.707 513.336 152.796C503.438 176.268 501.147 180.318 498.986 178.157C497.754 176.925 499.559 106.118 500.933 101.796C503.759 92.9062 504.012 86.8761 501.988 76.6084C499.582 64.4007 499.455 57.5094 501.596 55.3672C502.461 54.5032 503.516 53.7959 503.941 53.7959Z" fill="#d8ddda" stroke="transparent" stroke-width="0" class="transition-[opacity,fill] duration-300 ease-out cursor-pointer" data-muscle-id="15" style="opacity: 1; transform: scale(1); transform-origin: 50% 0%; transform-box: fill-box;"></path><path fill-rule="evenodd" clip-rule="evenodd" d="M487.656 53.9219C488.191 53.8152 488.822 54.1521 490.091 54.8311C492.703 56.229 492.674 63.7995 490.005 76.8935L487.986 86.8047L490.171 96.5498C492.132 105.3 492.397 109.862 492.76 141.176C493.16 175.601 492.825 179.997 490.012 177.184C488.353 175.525 475.488 146.022 472.146 136.215C470.444 131.221 468.563 123.571 467.966 119.215C467.369 114.86 466.444 109.604 465.91 107.536C464.71 102.89 459.83 97.8905 452.84 94.1445C445.156 90.0266 445.584 88.1924 455.125 84.3545C471.491 77.7695 479.056 71.6663 482.539 62.2373C483.543 59.5203 485.032 56.5089 485.849 55.5459C486.702 54.5416 487.141 54.0249 487.656 53.9219Z" fill="#d8ddda" stroke="transparent" stroke-width="0" class="transition-[opacity,fill] duration-300 ease-out cursor-pointer" data-muscle-id="15" style="opacity: 1; transform: scale(1); transform-origin: 50% 0%; transform-box: fill-box;"></path><path fill-rule="evenodd" clip-rule="evenodd" d="M123.751 67.5703C126 65.0513 127.02 66.2955 127.062 71.6055C127.082 74.1855 127.719 79.446 128.477 83.2959C130.105 91.5608 129.862 91.9608 122.199 93.6328C115.26 95.1477 115.025 95.1253 115.025 92.9355C115.025 89.9296 122.069 69.455 123.751 67.5703Z" fill="#d8ddda" stroke="transparent" stroke-width="0" class="transition-[opacity,fill] duration-300 ease-out cursor-pointer" data-muscle-id="15" style="opacity: 1; transform: scale(1); transform-origin: 50% 0%; transform-box: fill-box;"></path><path fill-rule="evenodd" clip-rule="evenodd" d="M91.5692 67.0635C92.0652 65.4565 94.6764 66.4793 95.5546 68.623C98.0264 74.6657 102.998 90.6993 103.011 92.6709C103.024 94.8368 102.738 94.9815 99.7753 94.3096C97.9873 93.9046 94.9503 93.2732 93.0253 92.9092C89.6933 92.2782 89.5311 92.0563 89.6571 88.2715C89.8451 82.6347 91.1162 68.5322 91.5692 67.0635Z" fill="#d8ddda" stroke="transparent" stroke-width="0" class="transition-[opacity,fill] duration-300 ease-out cursor-pointer" data-muscle-id="15" style="opacity: 1; transform: scale(1); transform-origin: 50% 0%; transform-box: fill-box;"></path><path fill-rule="evenodd" clip-rule="evenodd" d="M76.7372 82.7666C85.7682 78.3716 88.4602 79.0676 85.4452 85.0176C81.9193 91.9773 79.133 93.0641 70.7753 90.7432C66.7043 89.6132 65.6842 86.9607 68.9872 86.0967C70.0662 85.8136 73.5542 84.3156 76.7372 82.7666Z" fill="#d8ddda" stroke="transparent" stroke-width="0" class="transition-[opacity,fill] duration-300 ease-out cursor-pointer" data-muscle-id="15" style="opacity: 1; transform: scale(1); transform-origin: 50% 0%; transform-box: fill-box;"></path><path fill-rule="evenodd" clip-rule="evenodd" d="M133.355 78.7959C135.36 78.7969 151.021 87.2183 151.025 88.2969C151.025 90.8549 140.694 92.7604 137.139 90.8574C134.889 89.653 131.586 82.3828 132.366 80.3506C132.694 79.4956 133.139 78.7959 133.355 78.7959Z" fill="#d8ddda" stroke="transparent" stroke-width="0" class="transition-[opacity,fill] duration-300 ease-out cursor-pointer" data-muscle-id="15" style="opacity: 1; transform: scale(1); transform-origin: 50% 0%; transform-box: fill-box;"></path><path fill-rule="evenodd" clip-rule="evenodd" d="M87.202 549.836C93.394 549.783 95.342 552.26 96.951 562.235C98.381 571.102 97.8858 573.301 94.0038 575.308C90.9647 576.878 71.0805 577.303 66.0253 575.905C61.8573 574.753 62.4213 571.726 67.6102 567.388C70.5892 564.897 73.1142 561.582 74.6122 558.194C76.0741 554.889 78.0031 552.329 79.7401 551.387C81.2721 550.557 84.63 549.858 87.202 549.836Z" fill="#d8ddda" stroke="transparent" stroke-width="0" class="transition-[opacity,fill] duration-300 ease-out cursor-pointer" data-muscle-id="16" style="opacity: 1; transform: scale(1); transform-origin: 50% 0%; transform-box: fill-box;"></path><path fill-rule="evenodd" clip-rule="evenodd" d="M478.163 531.296C479.124 527.885 479.407 527.591 480.087 529.296C480.526 530.396 480.923 533.996 480.969 537.296C481.016 540.596 481.705 546.053 482.499 549.422C486.233 565.256 485.439 574.082 480.148 575.551C478.706 575.951 472.026 576.282 465.304 576.287C453.933 576.295 452.926 576.138 450.816 574.03L448.549 571.765L454.537 566.326C461.025 560.434 461.772 560.201 468.466 561.991C472.432 563.052 473.166 562.978 474.98 561.336C476.825 559.667 477.026 558.3 477.031 547.392C477.034 540.74 477.543 533.496 478.163 531.296Z" fill="#d8ddda" stroke="transparent" stroke-width="0" class="transition-[opacity,fill] duration-300 ease-out cursor-pointer" data-muscle-id="16" style="opacity: 1; transform: scale(1); transform-origin: 50% 0%; transform-box: fill-box;"></path><path fill-rule="evenodd" clip-rule="evenodd" d="M511.685 529.933C513.113 524.598 514.525 531.542 514.866 545.585C515.194 559.027 515.345 559.96 517.423 561.321C519.112 562.428 520.443 562.536 523.072 561.782C529.366 559.977 531.227 560.561 537.275 566.232C540.438 569.198 543.025 572.099 543.025 572.676C543.025 575.222 538.242 576.199 526.025 576.147C511.606 576.086 509.748 575.679 508.177 572.23C506.547 568.652 506.736 564.42 509.025 553.296C510.125 547.95 511.031 541.039 511.039 537.937C511.046 534.835 511.337 531.233 511.685 529.933Z" fill="#d8ddda" stroke="transparent" stroke-width="0" class="transition-[opacity,fill] duration-300 ease-out cursor-pointer" data-muscle-id="16" style="opacity: 1; transform: scale(1); transform-origin: 50% 0%; transform-box: fill-box;"></path><path fill-rule="evenodd" clip-rule="evenodd" d="M132.081 549.796C138.046 549.796 141.41 552.35 144.43 559.173C145.879 562.445 148.383 565.675 151.362 568.113C156.223 572.092 157.124 574.16 154.443 575.189C153.573 575.523 146.598 575.796 138.943 575.796C126.358 575.796 124.833 575.604 123.025 573.796C120.702 571.473 120.597 568.889 122.437 559.373C123.279 555.021 124.45 551.958 125.592 551.123C126.59 550.393 129.511 549.796 132.081 549.796Z" fill="#d8ddda" stroke="transparent" stroke-width="0" class="transition-[opacity,fill] duration-300 ease-out cursor-pointer" data-muscle-id="16" style="opacity: 1; transform: scale(1); transform-origin: 50% 0%; transform-box: fill-box;"></path><path fill-rule="evenodd" clip-rule="evenodd" d="M452.582 506.546C451.852 503.171 453.914 502.788 455.878 505.934C467.722 524.898 474.201 563.418 463.798 553.015C462.249 551.466 461.408 548.513 460.409 541.125C459.086 531.346 458.411 528.196 454.977 515.796C453.987 512.221 452.909 508.059 452.582 506.546Z" fill="#d8ddda" stroke="transparent" stroke-width="0" class="transition-[opacity,fill] duration-300 ease-out cursor-pointer" data-muscle-id="16" style="opacity: 1; transform: scale(1); transform-origin: 50% 0%; transform-box: fill-box;"></path><path fill-rule="evenodd" clip-rule="evenodd" d="M538.649 503.796C540.591 503.796 540.414 505.205 536.998 516.917C535.334 522.625 533.275 532.246 532.424 538.296C530.774 550.015 529.2 553.796 525.971 553.796C523.013 553.796 522.65 551.68 523.914 541.821C525.25 531.408 528.843 519.996 533.76 510.546C535.692 506.834 537.892 503.796 538.649 503.796Z" fill="#d8ddda" stroke="transparent" stroke-width="0" class="transition-[opacity,fill] duration-300 ease-out cursor-pointer" data-muscle-id="16" style="opacity: 1; transform: scale(1); transform-origin: 50% 0%; transform-box: fill-box;"></path><path fill-rule="evenodd" clip-rule="evenodd" d="M58.6083 458.441C59.2473 456.776 61.9586 457.323 62.1346 459.153C62.1946 459.782 62.3617 461.657 62.5057 463.321C63.4147 473.811 65.308 482.26 74.0389 514.796C77.5257 527.788 79.5619 541.658 78.1854 543.036C76.4484 544.773 75.3247 542.999 74.0887 536.57C72.6797 529.246 68.18 511.922 64.534 499.796C59.3981 482.71 56.6513 463.541 58.6083 458.441Z" fill="#d8ddda" stroke="transparent" stroke-width="0" class="transition-[opacity,fill] duration-300 ease-out cursor-pointer" data-muscle-id="16" style="opacity: 1; transform: scale(1); transform-origin: 50% 0%; transform-box: fill-box;"></path><path fill-rule="evenodd" clip-rule="evenodd" d="M157.025 461.325C157.025 457.364 159.821 458.19 160.607 462.382C161.85 469.007 160.027 479.111 153.46 502.008C151.612 508.449 148.937 519.024 147.515 525.508C144.517 539.176 143.185 543.023 141.638 542.482C138.816 541.493 142.723 519.583 150.106 494.978C152.401 487.331 157.025 464.84 157.025 461.325Z" fill="#d8ddda" stroke="transparent" stroke-width="0" class="transition-[opacity,fill] duration-300 ease-out cursor-pointer" data-muscle-id="16" style="opacity: 1; transform: scale(1); transform-origin: 50% 0%; transform-box: fill-box;"></path><path fill-rule="evenodd" clip-rule="evenodd" d="M150.314 437.598C153.094 435.834 153.524 437.786 153.463 451.887C153.415 462.997 152.877 468.7 151.112 476.796C147.938 491.36 141.472 515.449 137.691 526.796L134.525 536.296L134.195 530.296C133.636 520.102 139.797 468.326 143.121 455.296C145.404 446.342 148.487 438.758 150.314 437.598Z" fill="#d8ddda" stroke="transparent" stroke-width="0" class="transition-[opacity,fill] duration-300 ease-out cursor-pointer" data-muscle-id="16" style="opacity: 1; transform: scale(1); transform-origin: 50% 0%; transform-box: fill-box;"></path><path fill-rule="evenodd" clip-rule="evenodd" d="M65.4637 437.895C66.7097 435.88 68.4129 437.162 70.7938 441.91C75.8788 452.05 79.638 473.152 83.577 513.674C85.223 530.609 84.7029 535.01 81.7479 529.161C79.6468 525.004 69.4276 486.339 66.7176 472.296C64.4178 460.374 63.702 440.748 65.4637 437.895Z" fill="#d8ddda" stroke="transparent" stroke-width="0" class="transition-[opacity,fill] duration-300 ease-out cursor-pointer" data-muscle-id="16" style="opacity: 1; transform: scale(1); transform-origin: 50% 0%; transform-box: fill-box;"></path><path fill-rule="evenodd" clip-rule="evenodd" d="M93.4647 447.247C95.3416 444.383 97.671 444.053 98.4071 446.546C98.6911 447.508 99.4563 453.01 100.106 458.771C101.419 470.399 100.786 483.704 98.4422 493.796C97.6113 497.371 96.4986 504.571 95.9706 509.796C94.5716 523.614 93.043 530.58 91.869 528.483C90.347 525.763 88.2311 503.722 87.5301 483.296C86.8961 464.807 86.946 464.1 89.369 456.997C90.739 452.982 92.5817 448.594 93.4647 447.247Z" fill="#d8ddda" stroke="transparent" stroke-width="0" class="transition-[opacity,fill] duration-300 ease-out cursor-pointer" data-muscle-id="16" style="opacity: 1; transform: scale(1); transform-origin: 50% 0%; transform-box: fill-box;"></path><path fill-rule="evenodd" clip-rule="evenodd" d="M120.535 446.046C122.324 440.813 128.868 452.338 131.055 464.576C132.051 470.148 132.052 473.152 131.061 479.429C130.377 483.756 129.89 491.571 129.978 496.796C130.145 506.787 128.41 524.246 126.997 526.796C125.366 529.739 123.815 522.522 123.491 510.488C123.305 503.543 122.702 498.111 122.027 497.298C120.249 495.155 118.099 481.236 118.06 471.618C118.028 463.806 119.436 449.261 120.535 446.046Z" fill="#d8ddda" stroke="transparent" stroke-width="0" class="transition-[opacity,fill] duration-300 ease-out cursor-pointer" data-muscle-id="16" style="opacity: 1; transform: scale(1); transform-origin: 50% 0%; transform-box: fill-box;"></path><path fill-rule="evenodd" clip-rule="evenodd" d="M468.924 425.985C470.438 423.156 473.117 423.202 475.841 426.101C481.874 432.523 488.654 460.622 487.653 475.054C486.916 485.685 484.392 497.287 482.378 499.301C480.147 501.531 475.965 498.96 472.278 493.088C468.705 487.398 468.129 485.274 466.778 472.796C464.805 454.572 465.853 431.725 468.924 425.985Z" fill="#d8ddda" stroke="transparent" stroke-width="0" class="transition-[opacity,fill] duration-300 ease-out cursor-pointer" data-muscle-id="16" style="opacity: 1; transform: scale(1); transform-origin: 50% 0%; transform-box: fill-box;"></path><path fill-rule="evenodd" clip-rule="evenodd" d="M516.441 425.523C518.825 423.139 521.716 423.362 523.194 426.046C523.875 427.284 524.834 433.246 525.324 439.296C527.851 470.489 524.61 491.259 516.181 497.89C509.812 502.9 507.284 498.807 504.851 479.538C503.872 471.789 503.882 468.287 504.902 462.071C507.832 444.205 512.48 429.484 516.441 425.523Z" fill="#d8ddda" stroke="transparent" stroke-width="0" class="transition-[opacity,fill] duration-300 ease-out cursor-pointer" data-muscle-id="16" style="opacity: 1; transform: scale(1); transform-origin: 50% 0%; transform-box: fill-box;"></path><path fill-rule="evenodd" clip-rule="evenodd" d="M531.506 423.817C538.74 415.823 545.915 433.899 546.793 462.33C547.311 479.13 546.14 487.423 542.697 491.332C539.666 494.773 535.1 495.487 532.028 492.999C529.702 491.116 529.575 490.368 528.851 474.306C528.436 465.103 528.435 450.452 528.849 441.749C529.488 428.243 529.878 425.616 531.506 423.817Z" fill="#d8ddda" stroke="transparent" stroke-width="0" class="transition-[opacity,fill] duration-300 ease-out cursor-pointer" data-muscle-id="16" style="opacity: 1; transform: scale(1); transform-origin: 50% 0%; transform-box: fill-box;"></path><path fill-rule="evenodd" clip-rule="evenodd" d="M452.477 425.69C456.005 420.359 459.469 420.304 461.781 425.546C463.204 428.772 463.42 433.321 463.325 458.11C463.251 477.488 462.834 487.843 462.052 489.73C459.331 496.298 450.991 495.403 447.501 488.169C443.864 480.629 444.443 450.269 448.518 434.822C449.278 431.94 451.06 427.831 452.477 425.69Z" fill="#d8ddda" stroke="transparent" stroke-width="0" class="transition-[opacity,fill] duration-300 ease-out cursor-pointer" data-muscle-id="16" style="opacity: 1; transform: scale(1); transform-origin: 50% 0%; transform-box: fill-box;"></path><path fill-rule="evenodd" clip-rule="evenodd" d="M133.276 424.49C137.462 423.934 143.178 424.688 144.775 426.008C147.029 427.871 146.102 431.705 142.409 435.793C136.879 441.913 133.07 440.935 129.54 432.487C127.551 427.726 128.784 425.088 133.276 424.49Z" fill="#d8ddda" stroke="transparent" stroke-width="0" class="transition-[opacity,fill] duration-300 ease-out cursor-pointer" data-muscle-id="16" style="opacity: 1; transform: scale(1); transform-origin: 50% 0%; transform-box: fill-box;"></path><path fill-rule="evenodd" clip-rule="evenodd" d="M78.0253 424.498C81.2743 423.863 87.1832 424.692 88.7753 426.008C90.5592 427.482 90.3239 430.291 88.0419 434.764C84.8869 440.946 80.2921 441.279 75.5692 435.666C72.8542 432.439 72.2193 427.704 74.2753 426.015C74.9633 425.451 76.6503 424.768 78.0253 424.498Z" fill="#d8ddda" stroke="transparent" stroke-width="0" class="transition-[opacity,fill] duration-300 ease-out cursor-pointer" data-muscle-id="16" style="opacity: 1; transform: scale(1); transform-origin: 50% 0%; transform-box: fill-box;"></path><path fill-rule="evenodd" clip-rule="evenodd" d="M524.199 245.26C528.664 243.242 535.558 244.025 543.094 247.407C546.402 248.892 550.203 251.407 551.541 252.997C555.286 257.448 560.737 276.796 558.245 276.796C557.676 276.796 555.256 274.635 552.868 271.993C547.43 265.98 538.736 259.532 529.038 254.32C520.419 249.687 519.249 247.497 524.199 245.26Z" fill="#d8ddda" stroke="transparent" stroke-width="0" class="transition-[opacity,fill] duration-300 ease-out cursor-pointer" data-muscle-id="17" style="opacity: 1; transform: scale(1); transform-origin: 50% 0%; transform-box: fill-box;"></path><path fill-rule="evenodd" clip-rule="evenodd" d="M453.448 245.783C459.792 243.717 467.093 243.778 469.674 245.92C472.381 248.166 471.087 250.35 465.392 253.143C456.11 257.695 449.54 262.313 441.554 269.898C437.392 273.852 433.69 276.791 433.325 276.43C432.334 275.439 435.852 261.555 438.343 256.629C440.926 251.519 445.152 248.485 453.448 245.783Z" fill="#d8ddda" stroke="transparent" stroke-width="0" class="transition-[opacity,fill] duration-300 ease-out cursor-pointer" data-muscle-id="17" style="opacity: 1; transform: scale(1); transform-origin: 50% 0%; transform-box: fill-box;"></path><path fill-rule="evenodd" clip-rule="evenodd" d="M487.083 209.495C488.365 206.493 492.843 207.409 492.843 210.674V250.855C492.843 253.57 489.525 254.889 487.661 252.916L475.844 240.404C475.024 239.536 474.797 238.264 475.265 237.166L487.083 209.495Z" fill="#d8ddda" stroke="transparent" stroke-width="0" class="transition-[opacity,fill] duration-300 ease-out cursor-pointer" data-muscle-id="17" style="opacity: 1; transform: scale(1); transform-origin: 50% 0%; transform-box: fill-box;"></path><path fill-rule="evenodd" clip-rule="evenodd" d="M498.033 210.674C498.033 207.409 502.511 206.493 503.793 209.495L515.61 237.166C516.079 238.264 515.852 239.536 515.032 240.404L503.215 252.916C501.351 254.889 498.033 253.57 498.033 250.855V210.674Z" fill="#d8ddda" stroke="transparent" stroke-width="0" class="transition-[opacity,fill] duration-300 ease-out cursor-pointer" data-muscle-id="17" style="opacity: 1; transform: scale(1); transform-origin: 50% 0%; transform-box: fill-box;"></path><path fill-rule="evenodd" clip-rule="evenodd" d="M453.268 217.034C455.014 214.879 456.782 217.43 459.655 226.254C462.431 234.776 462.354 237.397 459.298 238.455C458.322 238.792 454.669 240.179 451.181 241.538C447.229 243.077 444.484 243.654 443.899 243.07C442.986 242.157 451.034 219.792 453.268 217.034Z" fill="#d8ddda" stroke="transparent" stroke-width="0" class="transition-[opacity,fill] duration-300 ease-out cursor-pointer" data-muscle-id="17" style="opacity: 1; transform: scale(1); transform-origin: 50% 0%; transform-box: fill-box;"></path><path fill-rule="evenodd" clip-rule="evenodd" d="M535.636 218.046C537.355 215.349 538.874 215.161 539.676 217.546C539.999 218.508 542.289 224.394 544.766 230.626C547.836 238.357 548.94 242.281 548.241 242.98C546.814 244.407 531.268 238.137 530.539 235.841C529.915 233.87 533.478 221.428 535.636 218.046Z" fill="#d8ddda" stroke="transparent" stroke-width="0" class="transition-[opacity,fill] duration-300 ease-out cursor-pointer" data-muscle-id="17" style="opacity: 1; transform: scale(1); transform-origin: 50% 0%; transform-box: fill-box;"></path><path fill-rule="evenodd" clip-rule="evenodd" d="M96.1454 0.817377C102.649 -0.547525 121.938 0.138377 125.475 1.86035C130.978 4.5393 131.865 7.58804 132.585 26.3086L133.238 43.2959L128.882 49.9336C126.485 53.5845 122.94 58.3097 121.002 60.4336C110.376 72.0853 106.323 71.7293 94.91 58.1445C94.537 57.7004 94.1789 57.2747 93.8348 56.8662C90.1806 52.5279 88.1302 50.0941 86.9813 47.291C85.5132 43.7091 85.5169 39.524 85.5243 29.9912C85.5248 29.2893 85.5253 28.5577 85.5253 27.7959C85.5253 18.1717 85.8699 9.0655 86.2909 7.55956C87.2339 4.18956 90.4014 2.02238 96.1454 0.817377Z" fill="#d8ddda" stroke="transparent" stroke-width="0" class="" data-muscle-id="0" style="opacity: 1; transform: scale(1); transform-origin: 50% 0%; transform-box: fill-box;"></path><path fill-rule="evenodd" clip-rule="evenodd" d="M484.025 0.479486C489.437 -0.409451 506.737 0.0140619 510.419 1.12499C517.502 3.26299 518.476 5.78324 518.869 22.9951C519.264 40.2571 518.67 45.7783 516.072 48.9873C514.237 51.2533 514.203 51.2554 509.376 49.5254C503.153 47.2944 488.471 47.1649 483.371 49.2959C477.925 51.5719 476.454 51.2029 474.402 47.0459C472.794 43.789 472.573 41.0396 472.72 26.1269C472.935 4.39223 473.929 2.13648 484.025 0.479486Z" fill="#d8ddda" stroke="transparent" stroke-width="0" class="" data-muscle-id="0" style="opacity: 1; transform: scale(1); transform-origin: 50% 0%; transform-box: fill-box;"></path></svg>